<?xml version="1.0" standalone="no"?>
<!DOCTYPE svg PUBLIC "-//W3C//DTD SVG 20010904//EN"
 "http://www.w3.org/TR/2001/REC-SVG-20010904/DTD/svg10.dtd">
<svg version="1.0" xmlns="http://www.w3.org/2000/svg"
  viewBox="0 0 900 900"
 preserveAspectRatio="xMidYMid meet">

<g transform="translate(0.000000,1024.000000) scale(0.100000,-0.100000)"
fill="currentColor" stroke="none">
<path d="M6875 9168 c-49 -17 -95 -57 -116 -101 -10 -23 -62 -247 -115 -497
-52 -250 -110 -527 -129 -615 -19 -88 -44 -209 -56 -268 l-23 -109 -80 -40
c-331 -166 -614 -349 -808 -521 -213 -190 -441 -503 -589 -812 -56 -117 -354
-805 -456 -1052 l-29 -73 -64 88 c-35 48 -182 251 -325 452 -144 201 -347 484
-451 630 -297 415 -296 413 -285 441 6 13 63 233 126 489 63 256 125 495 137
531 15 48 19 78 14 110 -26 173 -227 257 -352 147 -19 -17 -41 -43 -49 -58
-12 -23 -77 -267 -182 -680 -14 -58 -29 -108 -32 -112 -4 -4 -43 43 -87 105
-264 368 -629 874 -682 946 -80 109 -117 134 -203 139 -52 3 -74 0 -106 -16
-108 -55 -152 -181 -101 -283 13 -24 64 -101 114 -169 50 -69 155 -215 234
-325 79 -110 196 -272 260 -360 64 -88 162 -223 217 -300 55 -77 170 -238 256
-357 l157 -218 -663 0 c-399 0 -676 -4 -696 -10 -191 -54 -216 -311 -40 -410
l44 -25 839 -5 839 -5 81 -110 c44 -60 241 -331 437 -602 l358 -492 -145 -363
c-209 -525 -266 -636 -407 -797 -100 -113 -188 -179 -477 -358 -217 -134 -454
-265 -805 -444 -174 -89 -330 -173 -346 -186 -48 -40 -73 -99 -73 -168 0 -139
114 -238 254 -222 54 7 247 102 665 330 478 260 700 393 868 520 l89 67 872 0
873 0 254 -183 c352 -253 581 -420 804 -583 224 -163 243 -174 310 -174 130 1
240 122 221 243 -8 51 -37 105 -73 138 -15 15 -174 134 -353 264 -830 607
-764 557 -742 574 11 9 73 61 138 117 121 102 376 307 582 468 123 96 129 99
447 211 99 35 257 91 350 125 94 34 213 76 265 95 52 18 121 43 152 54 90 35
138 105 138 203 -1 123 -95 218 -217 218 -17 0 -197 -56 -400 -125 -202 -69
-371 -125 -374 -125 -4 0 10 46 31 103 287 764 286 762 260 842 -50 150 -254
194 -363 78 -19 -21 -53 -96 -106 -239 -43 -115 -147 -393 -231 -617 l-154
-409 -335 -276 c-185 -152 -409 -336 -498 -409 -89 -73 -173 -137 -188 -143
-17 -6 -261 -10 -662 -10 -531 0 -634 2 -624 13 28 34 115 231 256 577 170
417 172 423 362 880 136 327 313 746 405 960 113 263 239 474 390 655 219 262
517 450 1293 815 138 65 313 148 390 185 77 37 194 92 260 122 456 207 661
309 701 349 89 88 80 234 -20 321 -45 40 -96 56 -160 51 -54 -5 -36 4 -855
-385 -190 -89 -346 -161 -348 -159 -5 4 45 243 159 770 87 403 87 411 38 489
-50 80 -170 118 -265 85z"/>
</g>
</svg>
