<?xml version="1.0" standalone="no"?>
<!DOCTYPE svg PUBLIC "-//W3C//DTD SVG 20010904//EN"
 "http://www.w3.org/TR/2001/REC-SVG-20010904/DTD/svg10.dtd">
<svg version="1.0" xmlns="http://www.w3.org/2000/svg" viewBox="50 50 250 250"
 preserveAspectRatio="xMidYMid meet">

<g transform="translate(0.000000,376.000000) scale(0.100000,-0.100000)"
fill="currentColor" stroke="none">
<path d="M1720 3023 c-271 -25 -437 -97 -577 -247 -104 -112 -160 -237 -189
-431 -13 -83 -14 -115 -4 -187 10 -76 9 -94 -5 -137 -16 -48 -94 -177 -168
-278 -64 -87 -50 -123 61 -152 45 -13 68 -45 57 -82 -3 -11 -7 -27 -10 -38
-10 -34 23 -31 107 9 116 55 185 72 325 77 144 6 233 -10 339 -61 234 -112
314 -284 314 -676 0 -91 3 -189 6 -218 l7 -52 256 2 256 3 -1 30 c-1 17 -13
68 -28 115 -69 217 -74 438 -14 615 24 71 58 142 132 273 115 207 156 354 156
559 0 221 -52 386 -176 555 -94 127 -277 245 -447 288 -122 31 -284 44 -397
33z"/>
<path d="M1073 1380 c-84 -10 -157 -21 -163 -25 -17 -11 -11 -51 15 -96 22
-40 24 -51 19 -119 -9 -103 8 -143 73 -173 42 -19 68 -22 203 -25 85 -1 165
-5 176 -7 39 -9 49 -56 47 -227 l-1 -158 193 0 192 0 -4 178 c-5 216 -18 362
-39 425 -21 62 -98 146 -171 184 -123 65 -262 76 -540 43z"/>
</g>
</svg>
