<?xml version="1.0" standalone="no"?>
<!DOCTYPE svg PUBLIC "-//W3C//DTD SVG 20010904//EN"
 "http://www.w3.org/TR/2001/REC-SVG-20010904/DTD/svg10.dtd">
<svg version="1.0" xmlns="http://www.w3.org/2000/svg"
 width="1024.000000pt" height="1024.000000pt" viewBox="0 0 1024.000000 1024.000000"
 preserveAspectRatio="xMidYMid meet">

<g transform="translate(0.000000,1024.000000) scale(0.100000,-0.100000)"
fill="#000000" stroke="none">
<path d="M3530 8139 c-396 -36 -675 -101 -953 -225 -557 -247 -937 -675 -1174
-1324 -72 -197 -153 -512 -196 -760 -24 -132 -36 -239 -51 -450 -22 -285 -26
-358 -36 -635 -17 -447 -30 -649 -74 -1090 -30 -296 -37 -360 -41 -375 -2 -8
-11 -94 -21 -190 -23 -240 -16 -542 15 -648 12 -41 33 -97 48 -125 31 -62 133
-166 190 -196 143 -72 348 -66 558 16 145 58 225 103 473 270 167 112 250 173
517 378 229 176 487 366 560 413 44 28 85 55 90 60 18 15 217 146 310 204 155
96 390 221 787 419 431 216 520 264 663 357 253 165 384 314 448 513 32 98 51
276 43 409 -22 367 -26 456 -26 640 0 223 22 640 45 870 30 288 57 464 116
761 45 229 48 277 17 339 -36 70 -104 111 -250 150 -273 73 -826 169 -1178
206 -175 18 -731 26 -880 13z"/>
<path d="M6104 7819 c-54 -28 -110 -212 -178 -584 -58 -317 -86 -572 -112
-1015 -34 -583 14 -1254 101 -1430 52 -104 98 -122 317 -128 179 -5 254 3 430
43 395 89 760 359 1192 880 353 426 580 639 986 927 85 61 189 138 230 171
288 233 442 575 352 779 -126 285 -700 401 -1767 358 -583 -23 -829 -22 -1420
5 -71 3 -118 1 -131 -6z"/>
<path d="M3795 3367 c-92 -49 -99 -53 -262 -161 l-123 -81 0 -274 c0 -258 1
-275 21 -307 38 -63 71 -74 211 -74 109 0 129 3 168 23 81 41 80 36 80 497 0
222 -3 407 -7 411 -4 4 -44 -11 -88 -34z"/>
</g>
</svg>
