<?xml version="1.0" standalone="no"?>
<!DOCTYPE svg PUBLIC "-//W3C//DTD SVG 20010904//EN"
 "http://www.w3.org/TR/2001/REC-SVG-20010904/DTD/svg10.dtd">
<svg version="1.0" xmlns="http://www.w3.org/2000/svg"
 width="668.000000pt" height="668.000000pt" viewBox="0 0 668.000000 668.000000"
 preserveAspectRatio="xMidYMid meet">

<g transform="translate(0.000000,668.000000) scale(0.100000,-0.100000)"
fill="currentColor" stroke="none">
<path d="M3195 6549 c-500 -38 -987 -268 -1347 -635 -116 -117 -184 -202 -279
-344 -326 -486 -493 -1230 -342 -1528 36 -71 109 -144 180 -179 55 -27 65 -28
188 -27 119 0 146 4 320 47 505 123 972 180 1470 180 515 0 1121 -77 1607
-205 105 -27 141 -32 243 -32 116 -1 123 0 187 32 184 90 268 303 239 602 -47
466 -246 942 -546 1305 -192 231 -415 404 -726 560 -242 121 -495 191 -799
220 -158 16 -228 16 -395 4z"/>
<path d="M3080 3800 c-165 -13 -281 -31 -284 -44 -2 -6 -13 -82 -25 -168 -56
-414 -169 -867 -381 -1528 -43 -135 -87 -279 -99 -320 -90 -326 -86 -688 10
-930 65 -163 197 -328 342 -428 204 -140 382 -184 752 -184 323 0 483 27 660
111 446 213 632 694 505 1308 -24 115 -62 247 -151 523 -166 513 -286 995
-349 1407 -11 72 -20 150 -20 172 0 29 -5 41 -17 45 -101 32 -699 54 -943 36z
m737 -1174 c18 -9 49 -33 69 -53 127 -126 86 -342 -78 -413 -224 -97 -449 133
-339 348 24 48 98 115 143 130 46 16 166 9 205 -12z m-743 -828 c63 -19 140
-100 160 -167 20 -68 20 -84 0 -150 -18 -63 -77 -131 -138 -161 -58 -28 -160
-28 -221 1 -51 24 -110 85 -132 138 -22 50 -21 136 0 193 21 55 97 129 149
145 46 15 133 15 182 1z"/>
<path d="M6673 3320 c0 -30 2 -43 4 -27 2 15 2 39 0 55 -2 15 -4 2 -4 -28z"/>
</g>
</svg>
