<?xml version="1.0" standalone="no"?>
<!DOCTYPE svg PUBLIC "-//W3C//DTD SVG 20010904//EN"
 "http://www.w3.org/TR/2001/REC-SVG-20010904/DTD/svg10.dtd">
<svg version="1.0" xmlns="http://www.w3.org/2000/svg"
 viewBox="0 0 720 720"
 preserveAspectRatio="xMidYMid meet">

<g transform="translate(0.000000,720.000000) scale(0.100000,-0.100000)"
fill="currentColor" stroke="none">
<path d="M2264 5590 c-95 -17 -208 -59 -292 -107 -101 -59 -376 -296 -513
-443 -554 -593 -862 -1354 -863 -2135 0 -222 13 -288 89 -442 187 -379 612
-581 1024 -488 276 63 517 267 630 534 48 113 62 183 72 355 5 88 11 161 13
163 2 2 42 -37 88 -87 95 -101 148 -184 181 -280 21 -64 22 -72 27 -885 l5
-820 23 -45 c49 -94 123 -150 222 -168 172 -31 318 73 351 252 14 80 6 1619
-10 1697 -36 183 -116 375 -210 504 -28 39 -138 158 -246 265 l-195 195 83 92
c45 51 132 133 192 183 61 50 127 110 148 133 280 311 323 768 104 1110 -52
81 -179 210 -258 263 -89 59 -201 110 -297 135 -88 23 -288 33 -368 19z"/>
<path d="M4693 5586 c-100 -19 -165 -42 -258 -89 -193 -100 -346 -266 -428
-467 -54 -133 -62 -178 -61 -350 1 -139 4 -165 28 -245 51 -168 133 -296 272
-421 125 -112 318 -304 339 -337 l18 -28 -185 -187 c-235 -238 -290 -311 -371
-489 -46 -102 -81 -223 -96 -333 -9 -62 -12 -304 -9 -890 l3 -805 23 -42 c66
-125 201 -188 340 -159 95 19 167 80 210 174 15 33 17 113 22 852 l5 815 28
79 c15 43 39 98 53 122 30 51 204 247 212 239 3 -3 9 -74 13 -158 9 -183 31
-276 94 -404 187 -379 611 -581 1024 -487 327 74 598 345 682 684 23 93 18
472 -9 650 -69 447 -205 830 -427 1195 -170 281 -353 497 -636 750 -226 204
-335 272 -504 316 -103 26 -284 34 -382 15z"/>
</g>
</svg>
