<?xml version="1.0" standalone="no"?>
<!DOCTYPE svg PUBLIC "-//W3C//DTD SVG 20010904//EN"
 "http://www.w3.org/TR/2001/REC-SVG-20010904/DTD/svg10.dtd">
<svg version="1.0" xmlns="http://www.w3.org/2000/svg" viewBox="0 0 340 300"
 preserveAspectRatio="xMidYMid meet">

<g transform="translate(0.000000,348.000000) scale(0.100000,-0.100000)"
fill="currentColor" stroke="none">
<path d="M1673 3329 c-264 -44 -439 -280 -403 -544 25 -180 168 -343 349 -396
l43 -13 -6 -63 c-8 -81 -20 -110 -59 -152 -74 -78 -187 -129 -332 -151 -236
-34 -382 -98 -505 -220 -61 -60 -86 -95 -127 -175 -65 -127 -101 -236 -112
-338 -13 -110 6 -150 70 -150 48 0 66 28 79 120 16 119 36 188 81 279 52 107
161 219 254 264 58 28 155 62 155 55 0 -1 -16 -29 -35 -61 -52 -85 -78 -178
-64 -221 12 -36 34 -53 72 -53 33 0 45 16 63 86 39 150 112 245 222 289 37 15
105 46 151 71 46 24 86 43 88 40 14 -13 13 -183 -1 -269 -34 -207 -107 -293
-412 -480 -253 -156 -376 -429 -335 -742 15 -112 27 -137 69 -149 27 -7 38 -6
60 11 23 17 27 27 25 64 -15 250 -14 296 2 359 16 64 58 152 94 199 18 23 18
23 24 -52 7 -94 36 -164 71 -173 40 -10 72 3 85 34 10 24 9 37 -9 82 -17 43
-20 70 -18 148 l3 96 120 80 c66 44 146 106 178 136 l57 56 1 -481 c1 -264 4
-491 8 -504 3 -13 19 -33 34 -45 36 -27 75 -14 100 34 18 33 18 62 12 523 l-6
487 57 -60 c32 -33 105 -92 163 -130 58 -38 115 -75 126 -83 18 -13 20 -26 19
-110 -1 -63 -7 -112 -19 -145 -11 -30 -15 -59 -11 -76 13 -53 90 -60 122 -10
21 31 44 125 44 179 l0 40 21 -30 c40 -60 77 -141 89 -200 16 -77 16 -233 0
-312 -11 -55 -11 -66 4 -88 20 -30 59 -41 92 -26 40 18 56 73 62 206 8 195
-31 346 -125 487 -53 80 -94 118 -228 205 -55 37 -124 82 -154 102 -79 53
-158 138 -191 206 -47 96 -62 168 -67 318 l-5 139 38 -25 c47 -29 174 -90 228
-108 90 -31 170 -139 211 -285 21 -73 39 -94 80 -94 82 0 87 93 12 243 -25 50
-44 93 -43 94 2 2 29 -6 60 -17 230 -79 390 -304 422 -595 9 -85 24 -105 79
-105 64 0 80 27 70 118 -20 193 -110 405 -224 526 -115 121 -266 196 -471 231
-143 25 -209 44 -272 77 -120 64 -160 117 -173 234 l-7 59 48 14 c205 58 354
254 354 466 0 229 -159 422 -388 471 -74 15 -93 16 -169 3z"/>
</g>
</svg>
