<?xml version="1.0" standalone="no"?>
<!DOCTYPE svg PUBLIC "-//W3C//DTD SVG 20010904//EN"
 "http://www.w3.org/TR/2001/REC-SVG-20010904/DTD/svg10.dtd">
<svg version="1.0" xmlns="http://www.w3.org/2000/svg"
 viewBox="0 0 1024.000000 1024.000000"
 preserveAspectRatio="xMidYMid meet">

<g transform="translate(0.000000,1024.000000) scale(0.100000,-0.100000)"
fill="currentColor" stroke="none">
<path d="M8125 8980 c-149 -27 -272 -99 -459 -269 -128 -117 -2969 -2967
-3004 -3015 -65 -88 -80 -263 -30 -362 l25 -50 -1709 -1714 c-961 -965 -1711
-1725 -1714 -1739 -9 -33 6 -70 37 -93 72 -54 555 -47 899 13 591 103 1144
366 1634 775 143 120 406 386 529 536 239 291 386 579 465 913 73 303 91 336
301 548 l166 168 64 -33 c60 -31 71 -33 160 -33 81 0 104 4 146 24 40 19 343
316 1550 1520 825 823 1531 1533 1570 1577 159 185 222 352 212 564 -9 191
-72 335 -202 466 -67 68 -96 89 -175 127 -52 25 -123 53 -158 62 -77 19 -239
27 -307 15z m-2522 -2844 c18 -8 143 -126 280 -263 246 -247 247 -249 247
-292 0 -60 -41 -101 -101 -101 -43 0 -45 1 -292 248 -241 239 -283 290 -271
329 14 44 31 67 59 79 38 17 39 17 78 0z m-42 -562 c265 -265 276 -280 249
-344 -27 -65 -101 -79 -166 -31 -67 50 -472 465 -484 495 -14 38 2 89 38 117
21 16 36 20 71 16 42 -5 54 -15 292 -253z"/>
</g>
</svg>
